<svg xmlns="http://www.w3.org/2000/svg" version="1.1" xmlns:xlink="http://www.w3.org/1999/xlink" xmlns:svgjs="http://svgjs.com/svgjs" width="1440" height="560" preserveAspectRatio="none" viewBox="0 0 1440 560"><g mask="url(&quot;#SvgjsMask1044&quot;)" fill="none"><rect width="1440" height="560" x="0" y="0" fill="rgba(249, 115, 22, 1)"></rect><path d="M1464 560L0 560 L0 474Q45.66 399.66, 120 445.32Q186.75 392.06, 240 458.81Q311.57 410.38, 360 481.95Q401.57 451.52, 432 493.09Q450.94 440.03, 504 458.97Q572.25 407.22, 624 475.46Q670.5 401.96, 744 448.46Q825.46 409.92, 864 491.39Q911.48 418.87, 984 466.34Q1011.2 421.54, 1056 448.75Q1086.11 406.86, 1128 436.97Q1210.95 399.93, 1248 482.88Q1276.2 439.08, 1320 467.28Q1343.88 419.16, 1392 443.05Q1433.81 412.86, 1464 454.67z" fill="rgba(255, 143, 65, 1)"></path><path d="M1512 560L0 560 L0 487.88Q81.56 449.44, 120 530.99Q148.32 487.31, 192 515.63Q210.34 461.97, 264 480.31Q348.18 444.49, 384 528.67Q432.02 456.69, 504 504.71Q557.14 437.86, 624 491Q679.01 474.01, 696 529.02Q744.57 457.59, 816 506.15Q862.75 432.9, 936 479.65Q1017.15 440.81, 1056 521.96Q1082.74 476.7, 1128 503.44Q1178.97 434.41, 1248 485.39Q1299 464.39, 1320 515.39Q1370.46 445.85, 1440 496.31Q1468.63 452.94, 1512 481.58z" fill="rgba(255, 169, 109, 1)"></path><path d="M1512 560L0 560 L0 557.76Q26.41 512.17, 72 538.58Q101.92 496.5, 144 526.43Q204.5 514.92, 216 575.42Q260.25 499.66, 336 543.91Q388.51 476.42, 456 528.94Q504.76 505.71, 528 554.47Q593.03 499.5, 648 564.53Q687.4 483.93, 768 523.34Q840.02 475.36, 888 547.38Q941.32 480.7, 1008 534.03Q1085.8 491.83, 1128 569.63Q1151.79 521.42, 1200 545.21Q1267.2 492.41, 1320 559.62Q1386.62 506.24, 1440 572.86Q1454.43 515.29, 1512 529.72z" fill="rgba(255, 255, 255, 1)"></path></g><defs><mask id="SvgjsMask1044"><rect width="1440" height="560" fill="#ffffff"></rect></mask></defs></svg>