<svg xmlns="http://www.w3.org/2000/svg" version="1.1" xmlns:xlink="http://www.w3.org/1999/xlink" xmlns:svgjs="http://svgjs.com/svgjs" width="1440" height="560" preserveAspectRatio="none" viewBox="0 0 1440 560"><g mask="url(&quot;#SvgjsMask1012&quot;)" fill="none"><rect width="1440" height="560" x="0" y="0" fill="rgba(249, 115, 22, 1)"></rect><path d="M8.92 240.22L56.14 240.22L56.14 280.27L8.92 280.27z" stroke="rgba(255, 255, 255, 1)"></path><path d="M467.55 68.66L487.44 68.66L487.44 118.45L467.55 118.45z" fill="rgba(255, 255, 255, 1)"></path><path d="M203 529.62L241.17 529.62L241.17 567.79L203 567.79z" fill="rgba(232, 69, 69, 1)"></path><path d="M845.67 321.17a19.01 19.01 0 1 0-33.22-18.5z" stroke="rgba(70, 81, 187, 1)"></path><path d="M1365.44 183.07a52.44 52.44 0 1 0-101.32-27.1z" stroke="rgba(232, 69, 69, 1)"></path><path d="M669.22 202.87L688.25 202.87L688.25 221.9L669.22 221.9z" stroke="rgba(255, 255, 255, 1)"></path><path d="M757.11 435.85L800.11 435.85L800.11 471.39L757.11 471.39z" fill="rgba(70, 81, 187, 1)"></path><path d="M1406.69 465.45 a4.54 4.54 0 1 0 9.08 0 a4.54 4.54 0 1 0 -9.08 0z" stroke="rgba(232, 69, 69, 1)"></path><path d="M646.67 227.33a31.01 31.01 0 1 0-54.76 29.11z" fill="rgba(70, 81, 187, 1)"></path><path d="M467.67 415.48L520.62 415.48L520.62 446.26L467.67 446.26z" stroke="rgba(70, 81, 187, 1)"></path><path d="M1153.09 12.28L1191.13 12.28L1191.13 50.32L1153.09 50.32z" stroke="rgba(255, 255, 255, 1)"></path><path d="M1080.6 65.65L1133.8 65.65L1133.8 118.85L1080.6 118.85z" stroke="rgba(70, 81, 187, 1)"></path><path d="M125.2 17.85a50.42 50.42 0 1 0-100.62 6.58z" stroke="rgba(70, 81, 187, 1)"></path><path d="M505.66 141.31 a21.91 21.91 0 1 0 43.82 0 a21.91 21.91 0 1 0 -43.82 0z" fill="rgba(232, 69, 69, 1)"></path><path d="M878.63 497.3 a42.14 42.14 0 1 0 84.28 0 a42.14 42.14 0 1 0 -84.28 0z" stroke="rgba(255, 255, 255, 1)"></path><path d="M945.53 286.24L972.96 286.24L972.96 313.67L945.53 313.67z" fill="rgba(255, 255, 255, 1)"></path><path d="M305.82 495.31a12.6 12.6 0 1 0 12.77 21.73z" fill="rgba(232, 69, 69, 1)"></path><path d="M1253.55 301.43a15.56 15.56 0 1 0-15.43-27.03z" fill="rgba(70, 81, 187, 1)"></path><path d="M280.79 217.31a11.51 11.51 0 1 0 21.42-8.44z" fill="rgba(232, 69, 69, 1)"></path><path d="M1359.44 293.27L1368.89 293.27L1368.89 302.72L1359.44 302.72z" fill="rgba(70, 81, 187, 1)"></path><path d="M614.96 167.89L626.74 167.89L626.74 179.67L614.96 179.67z" stroke="rgba(255, 255, 255, 1)"></path><path d="M1185.31 89.21L1227.42 89.21L1227.42 111.22L1185.31 111.22z" stroke="rgba(255, 255, 255, 1)"></path><path d="M147.26 318.34a51.63 51.63 0 1 0-96.78-36z" stroke="rgba(232, 69, 69, 1)"></path><path d="M413.75 204.38L469.59 204.38L469.59 260.22L413.75 260.22z" fill="rgba(70, 81, 187, 1)"></path><path d="M219.45 230.17L248.89 230.17L248.89 259.61L219.45 259.61z" stroke="rgba(232, 69, 69, 1)"></path><path d="M224.95 277.6 a39.82 39.82 0 1 0 79.64 0 a39.82 39.82 0 1 0 -79.64 0z" fill="rgba(232, 69, 69, 1)"></path><path d="M1064.7 312.87L1094.41 312.87L1094.41 331.47L1064.7 331.47z" fill="rgba(232, 69, 69, 1)"></path><path d="M829.67 242.34L829.85 242.34L829.85 256.01L829.67 256.01z" stroke="rgba(255, 255, 255, 1)"></path><path d="M1152.34 550.23 a45.55 45.55 0 1 0 91.1 0 a45.55 45.55 0 1 0 -91.1 0z" stroke="rgba(232, 69, 69, 1)"></path><path d="M486.78 33.25L504.89 33.25L504.89 33.86L486.78 33.86z" fill="rgba(255, 255, 255, 1)"></path><path d="M1416.13 212.21L1439.87 212.21L1439.87 235.95L1416.13 235.95z" stroke="rgba(70, 81, 187, 1)"></path><path d="M1139.59 438.65 a12.3 12.3 0 1 0 24.6 0 a12.3 12.3 0 1 0 -24.6 0z" fill="rgba(70, 81, 187, 1)"></path><path d="M1132.25 76.6L1171.17 76.6L1171.17 97.91L1132.25 97.91z" stroke="rgba(255, 255, 255, 1)"></path></g><defs><mask id="SvgjsMask1012"><rect width="1440" height="560" fill="#ffffff"></rect></mask></defs></svg>